<mxfile host="app.diagrams.net" agent="Mozilla/5.0 (X11; Ubuntu; Linux x86_64; rv:128.0) Gecko/20100101 Firefox/128.0" version="24.7.6">
  <diagram name="Page-1" id="1wEI3WNAIh0rknSwBO8R">
    <mxGraphModel dx="758" dy="946" grid="1" gridSize="10" guides="1" tooltips="1" connect="1" arrows="1" fold="1" page="1" pageScale="1" pageWidth="2900" pageHeight="1920" math="0" shadow="0">
      <root>
        <mxCell id="0" />
        <mxCell id="1" parent="0" />
        <mxCell id="lIAzLQjcqMZzX_TsZZTF-103" value="" style="rounded=1;whiteSpace=wrap;html=1;" vertex="1" parent="1">
          <mxGeometry x="85" y="1730" width="455" height="110" as="geometry" />
        </mxCell>
        <mxCell id="lIAzLQjcqMZzX_TsZZTF-1" value="Data Link Layer" style="swimlane;whiteSpace=wrap;html=1;" vertex="1" parent="1">
          <mxGeometry x="100.5" y="200" width="500" height="330" as="geometry" />
        </mxCell>
        <mxCell id="lIAzLQjcqMZzX_TsZZTF-2" value="CAN Object Layer" style="rounded=1;whiteSpace=wrap;html=1;fillColor=#fff2cc;strokeColor=#d6b656;" vertex="1" parent="lIAzLQjcqMZzX_TsZZTF-1">
          <mxGeometry x="90" y="90" width="320" height="60" as="geometry" />
        </mxCell>
        <mxCell id="lIAzLQjcqMZzX_TsZZTF-3" value="CAN Transfer Layer (Kernel)" style="rounded=1;whiteSpace=wrap;html=1;fillColor=#d5e8d4;strokeColor=#82b366;" vertex="1" parent="lIAzLQjcqMZzX_TsZZTF-1">
          <mxGeometry x="90" y="210" width="320" height="60" as="geometry" />
        </mxCell>
        <mxCell id="lIAzLQjcqMZzX_TsZZTF-13" value="" style="shape=flexArrow;endArrow=classic;startArrow=classic;html=1;rounded=0;entryX=0.514;entryY=0.983;entryDx=0;entryDy=0;entryPerimeter=0;fillColor=#f8cecc;strokeColor=#b85450;endWidth=12.857142857142856;endSize=4.7333333333333325;startWidth=12.857142857142856;startSize=5.552380952380952;" edge="1" parent="lIAzLQjcqMZzX_TsZZTF-1" source="lIAzLQjcqMZzX_TsZZTF-3" target="lIAzLQjcqMZzX_TsZZTF-2">
          <mxGeometry width="100" height="100" relative="1" as="geometry">
            <mxPoint x="320" y="390" as="sourcePoint" />
            <mxPoint x="420" y="290" as="targetPoint" />
          </mxGeometry>
        </mxCell>
        <mxCell id="lIAzLQjcqMZzX_TsZZTF-6" value="&lt;h1 style=&quot;margin-top: 0px;&quot;&gt;Scope&lt;br&gt;&lt;/h1&gt;&lt;p&gt;- find which messages need to be transmitted&lt;/p&gt;&lt;p&gt;- decide which messages from transfer layer to use&lt;/p&gt;&lt;p&gt;- provide interface to application layer hardware&lt;/p&gt;&lt;p&gt;- Message Filtering&lt;br&gt;- Message and Status Handling&lt;br&gt;&lt;/p&gt;" style="text;html=1;whiteSpace=wrap;overflow=hidden;rounded=0;" vertex="1" parent="1">
          <mxGeometry x="650" y="60" width="180" height="210" as="geometry" />
        </mxCell>
        <mxCell id="lIAzLQjcqMZzX_TsZZTF-7" value="" style="endArrow=classic;html=1;rounded=0;exitX=1;exitY=0.5;exitDx=0;exitDy=0;" edge="1" parent="1" source="lIAzLQjcqMZzX_TsZZTF-3" target="lIAzLQjcqMZzX_TsZZTF-8">
          <mxGeometry width="50" height="50" relative="1" as="geometry">
            <mxPoint x="390" y="620" as="sourcePoint" />
            <mxPoint x="740" y="730" as="targetPoint" />
          </mxGeometry>
        </mxCell>
        <mxCell id="lIAzLQjcqMZzX_TsZZTF-8" value="&lt;h1 style=&quot;margin-top: 0px;&quot;&gt;Scope&lt;br&gt;&lt;/h1&gt;&lt;p&gt;- control framing&lt;/p&gt;&lt;p&gt;- perform arbitration&lt;/p&gt;&lt;p&gt;- error check/signaling&lt;/p&gt;&lt;p&gt;- decide whether bus is free to start transmission or whether reception starting&lt;/p&gt;&lt;p&gt;- bit timing&lt;/p&gt;&lt;p&gt;- Fault Confinement&lt;br&gt;- Error Detection and Signalling&lt;br&gt;- Message Validation&lt;br&gt;- Acknowledgment&lt;br&gt;- Arbitration&lt;br&gt;- Message Framing&lt;br&gt;- Transfer Rate and Timing&lt;br&gt;&lt;/p&gt;" style="text;html=1;whiteSpace=wrap;overflow=hidden;rounded=0;" vertex="1" parent="1">
          <mxGeometry x="660" y="320" width="180" height="335" as="geometry" />
        </mxCell>
        <mxCell id="lIAzLQjcqMZzX_TsZZTF-9" value="Physical Layer" style="swimlane;whiteSpace=wrap;html=1;" vertex="1" parent="1">
          <mxGeometry x="100" y="530" width="500" height="160" as="geometry" />
        </mxCell>
        <mxCell id="lIAzLQjcqMZzX_TsZZTF-10" value="&lt;h1 style=&quot;margin-top: 0px;&quot;&gt;Scope&lt;br&gt;&lt;/h1&gt;&lt;p&gt;- actual transfer of bits between nodes&lt;/p&gt;&lt;p&gt;- not a part of the spec scope&lt;br&gt;&lt;/p&gt;" style="text;html=1;whiteSpace=wrap;overflow=hidden;rounded=0;" vertex="1" parent="lIAzLQjcqMZzX_TsZZTF-9">
          <mxGeometry x="20" y="30" width="460" height="120" as="geometry" />
        </mxCell>
        <mxCell id="lIAzLQjcqMZzX_TsZZTF-4" value="" style="endArrow=classic;html=1;rounded=0;entryX=0.5;entryY=1;entryDx=0;entryDy=0;exitX=1;exitY=0.5;exitDx=0;exitDy=0;" edge="1" parent="1" source="lIAzLQjcqMZzX_TsZZTF-2" target="lIAzLQjcqMZzX_TsZZTF-6">
          <mxGeometry width="50" height="50" relative="1" as="geometry">
            <mxPoint x="400" y="430" as="sourcePoint" />
            <mxPoint x="434.21052631578937" y="300" as="targetPoint" />
          </mxGeometry>
        </mxCell>
        <mxCell id="lIAzLQjcqMZzX_TsZZTF-11" style="edgeStyle=orthogonalEdgeStyle;rounded=0;orthogonalLoop=1;jettySize=auto;html=1;exitX=0.5;exitY=1;exitDx=0;exitDy=0;" edge="1" parent="1" source="lIAzLQjcqMZzX_TsZZTF-6" target="lIAzLQjcqMZzX_TsZZTF-6">
          <mxGeometry relative="1" as="geometry" />
        </mxCell>
        <mxCell id="lIAzLQjcqMZzX_TsZZTF-12" value="Application Layer" style="swimlane;whiteSpace=wrap;html=1;" vertex="1" parent="1">
          <mxGeometry x="100" y="110" width="500" height="90" as="geometry" />
        </mxCell>
        <mxCell id="lIAzLQjcqMZzX_TsZZTF-15" value="..." style="text;html=1;align=center;verticalAlign=middle;whiteSpace=wrap;rounded=0;" vertex="1" parent="lIAzLQjcqMZzX_TsZZTF-12">
          <mxGeometry x="205" y="40" width="90" height="30" as="geometry" />
        </mxCell>
        <mxCell id="lIAzLQjcqMZzX_TsZZTF-14" value="" style="shape=flexArrow;endArrow=classic;html=1;rounded=0;width=12.941176470588236;endSize=4.894117647058824;exitX=0.851;exitY=0.003;exitDx=0;exitDy=0;exitPerimeter=0;entryX=0.5;entryY=1;entryDx=0;entryDy=0;" edge="1" parent="1" source="lIAzLQjcqMZzX_TsZZTF-2" target="lIAzLQjcqMZzX_TsZZTF-15">
          <mxGeometry width="50" height="50" relative="1" as="geometry">
            <mxPoint x="350" y="430" as="sourcePoint" />
            <mxPoint x="450" y="340" as="targetPoint" />
            <Array as="points" />
          </mxGeometry>
        </mxCell>
        <mxCell id="lIAzLQjcqMZzX_TsZZTF-17" value="1. Layered structure of a CAN Node" style="text;html=1;align=center;verticalAlign=middle;whiteSpace=wrap;rounded=0;fontStyle=5;fontSize=25;" vertex="1" parent="1">
          <mxGeometry x="190" y="30" width="310" height="30" as="geometry" />
        </mxCell>
        <mxCell id="lIAzLQjcqMZzX_TsZZTF-19" value="" style="endArrow=classic;html=1;rounded=0;fontStyle=1" edge="1" parent="1">
          <mxGeometry relative="1" as="geometry">
            <mxPoint x="100" y="1020" as="sourcePoint" />
            <mxPoint x="550" y="1020" as="targetPoint" />
          </mxGeometry>
        </mxCell>
        <mxCell id="lIAzLQjcqMZzX_TsZZTF-20" value="Label" style="edgeLabel;resizable=0;html=1;;align=center;verticalAlign=middle;" connectable="0" vertex="1" parent="lIAzLQjcqMZzX_TsZZTF-19">
          <mxGeometry relative="1" as="geometry" />
        </mxCell>
        <mxCell id="lIAzLQjcqMZzX_TsZZTF-23" value="&lt;b&gt;&lt;u&gt;Can Bus&lt;/u&gt;&lt;/b&gt;" style="edgeLabel;html=1;align=center;verticalAlign=middle;resizable=0;points=[];" vertex="1" connectable="0" parent="lIAzLQjcqMZzX_TsZZTF-19">
          <mxGeometry relative="1" as="geometry">
            <mxPoint as="offset" />
          </mxGeometry>
        </mxCell>
        <mxCell id="lIAzLQjcqMZzX_TsZZTF-26" value="CAN Node 1(Transmitter)" style="rounded=1;whiteSpace=wrap;html=1;fillColor=#fff2cc;strokeColor=#d6b656;" vertex="1" parent="1">
          <mxGeometry x="131" y="1070" width="120" height="60" as="geometry" />
        </mxCell>
        <mxCell id="lIAzLQjcqMZzX_TsZZTF-27" value="&lt;div&gt;CAN Node 2&lt;/div&gt;&lt;div&gt;(Receiver)&lt;br&gt;&lt;/div&gt;" style="rounded=1;whiteSpace=wrap;html=1;" vertex="1" parent="1">
          <mxGeometry x="410" y="1070" width="120" height="60" as="geometry" />
        </mxCell>
        <mxCell id="lIAzLQjcqMZzX_TsZZTF-30" value="&lt;div&gt;CAN Node 3(Receiver)&lt;/div&gt;" style="rounded=1;whiteSpace=wrap;html=1;" vertex="1" parent="1">
          <mxGeometry x="270" y="910" width="120" height="60" as="geometry" />
        </mxCell>
        <mxCell id="lIAzLQjcqMZzX_TsZZTF-31" value="" style="endArrow=classic;startArrow=classic;html=1;rounded=0;" edge="1" parent="1">
          <mxGeometry width="50" height="50" relative="1" as="geometry">
            <mxPoint x="180" y="1070" as="sourcePoint" />
            <mxPoint x="230" y="1020" as="targetPoint" />
          </mxGeometry>
        </mxCell>
        <mxCell id="lIAzLQjcqMZzX_TsZZTF-32" value="" style="endArrow=classic;startArrow=classic;html=1;rounded=0;" edge="1" parent="1">
          <mxGeometry width="50" height="50" relative="1" as="geometry">
            <mxPoint x="280" y="1020" as="sourcePoint" />
            <mxPoint x="330" y="970" as="targetPoint" />
          </mxGeometry>
        </mxCell>
        <mxCell id="lIAzLQjcqMZzX_TsZZTF-33" value="" style="endArrow=classic;startArrow=classic;html=1;rounded=0;entryX=0.5;entryY=0;entryDx=0;entryDy=0;" edge="1" parent="1" target="lIAzLQjcqMZzX_TsZZTF-27">
          <mxGeometry width="50" height="50" relative="1" as="geometry">
            <mxPoint x="400" y="1020" as="sourcePoint" />
            <mxPoint x="410" y="1020" as="targetPoint" />
          </mxGeometry>
        </mxCell>
        <mxCell id="lIAzLQjcqMZzX_TsZZTF-34" value="" style="shape=message;html=1;html=1;outlineConnect=0;labelPosition=center;verticalLabelPosition=bottom;align=center;verticalAlign=top;fillColor=#fff2cc;strokeColor=#d6b656;" vertex="1" parent="1">
          <mxGeometry x="170" y="1040" width="20" height="10" as="geometry" />
        </mxCell>
        <mxCell id="lIAzLQjcqMZzX_TsZZTF-36" value="" style="shape=message;html=1;html=1;outlineConnect=0;labelPosition=center;verticalLabelPosition=bottom;align=center;verticalAlign=top;fillColor=#fff2cc;strokeColor=#d6b656;" vertex="1" parent="1">
          <mxGeometry x="350" y="1010" width="20" height="10" as="geometry" />
        </mxCell>
        <mxCell id="lIAzLQjcqMZzX_TsZZTF-37" value="" style="shape=message;html=1;html=1;outlineConnect=0;labelPosition=center;verticalLabelPosition=bottom;align=center;verticalAlign=top;fillColor=#fff2cc;strokeColor=#d6b656;" vertex="1" parent="1">
          <mxGeometry x="380" y="1010" width="20" height="10" as="geometry" />
        </mxCell>
        <mxCell id="lIAzLQjcqMZzX_TsZZTF-38" value="" style="shape=message;html=1;html=1;outlineConnect=0;labelPosition=center;verticalLabelPosition=bottom;align=center;verticalAlign=top;fillColor=#fff2cc;strokeColor=#d6b656;" vertex="1" parent="1">
          <mxGeometry x="460" y="1070" width="20" height="10" as="geometry" />
        </mxCell>
        <mxCell id="lIAzLQjcqMZzX_TsZZTF-39" value="" style="shape=message;html=1;html=1;outlineConnect=0;labelPosition=center;verticalLabelPosition=bottom;align=center;verticalAlign=top;fillColor=#fff2cc;strokeColor=#d6b656;" vertex="1" parent="1">
          <mxGeometry x="240" y="1010" width="20" height="10" as="geometry" />
        </mxCell>
        <mxCell id="lIAzLQjcqMZzX_TsZZTF-40" value="" style="shape=message;html=1;html=1;outlineConnect=0;labelPosition=center;verticalLabelPosition=bottom;align=center;verticalAlign=top;fillColor=#fff2cc;strokeColor=#d6b656;" vertex="1" parent="1">
          <mxGeometry x="195" y="1020" width="20" height="10" as="geometry" />
        </mxCell>
        <mxCell id="lIAzLQjcqMZzX_TsZZTF-41" value="ID" style="text;html=1;align=center;verticalAlign=middle;whiteSpace=wrap;rounded=0;fontSize=9;" vertex="1" parent="1">
          <mxGeometry x="150" y="1040" width="20" height="10" as="geometry" />
        </mxCell>
        <mxCell id="lIAzLQjcqMZzX_TsZZTF-42" value="Free" style="rounded=1;html=1;shadow=0;dashed=0;whiteSpace=wrap;fontSize=10;align=center;fillColor=#f5f5f5;fontColor=#333333;strokeColor=#666666;" vertex="1" parent="1">
          <mxGeometry x="495" y="1030" width="105.5" height="16.88" as="geometry" />
        </mxCell>
        <mxCell id="lIAzLQjcqMZzX_TsZZTF-43" value="Transmitting" style="rounded=1;html=1;shadow=0;dashed=0;whiteSpace=wrap;fontSize=10;fillColor=#fff2cc;align=center;strokeColor=#d6b656;strokeWidth=2;" vertex="1" parent="1">
          <mxGeometry x="495" y="993.12" width="105.5" height="16.88" as="geometry" />
        </mxCell>
        <mxCell id="lIAzLQjcqMZzX_TsZZTF-44" value="" style="shape=message;html=1;html=1;outlineConnect=0;labelPosition=center;verticalLabelPosition=bottom;align=center;verticalAlign=top;fillColor=#fff2cc;strokeColor=#d6b656;" vertex="1" parent="1">
          <mxGeometry x="310" y="955" width="20" height="10" as="geometry" />
        </mxCell>
        <mxCell id="lIAzLQjcqMZzX_TsZZTF-46" value="&lt;br&gt;&lt;h1 style=&quot;margin-top: 0px;&quot;&gt;2. Basic Concepts / Flow&lt;br&gt;&lt;/h1&gt;" style="text;html=1;whiteSpace=wrap;overflow=hidden;rounded=0;" vertex="1" parent="1">
          <mxGeometry x="190" y="760" width="325" height="55" as="geometry" />
        </mxCell>
        <mxCell id="lIAzLQjcqMZzX_TsZZTF-48" value="&lt;h1 style=&quot;margin-top: 0px;&quot;&gt;3. Message Transfer&lt;br&gt;&lt;/h1&gt;&lt;div&gt;&lt;br&gt;&lt;/div&gt;&lt;div&gt;There are 4 types of frames in a CAN network:&lt;/div&gt;&lt;div&gt;DATA frame, REMOTE frame, ERROR frame and an OVERLOAD frame.&lt;br&gt;&lt;/div&gt;" style="text;html=1;whiteSpace=wrap;overflow=hidden;rounded=0;" vertex="1" parent="1">
          <mxGeometry x="205" y="1180" width="250" height="110" as="geometry" />
        </mxCell>
        <mxCell id="lIAzLQjcqMZzX_TsZZTF-50" value="" style="shape=process;whiteSpace=wrap;html=1;backgroundOutline=1;" vertex="1" parent="1">
          <mxGeometry x="60" y="1360" width="620" height="60" as="geometry" />
        </mxCell>
        <mxCell id="lIAzLQjcqMZzX_TsZZTF-51" value="DATA FRAME" style="text;html=1;align=center;verticalAlign=middle;whiteSpace=wrap;rounded=0;" vertex="1" parent="1">
          <mxGeometry x="305" y="1330" width="110" height="30" as="geometry" />
        </mxCell>
        <mxCell id="lIAzLQjcqMZzX_TsZZTF-52" value="SOF (1b)" style="text;html=1;align=center;verticalAlign=middle;whiteSpace=wrap;rounded=0;" vertex="1" parent="1">
          <mxGeometry x="60" y="1375" width="60" height="30" as="geometry" />
        </mxCell>
        <mxCell id="lIAzLQjcqMZzX_TsZZTF-53" value="EOF(7rcb)" style="text;html=1;align=center;verticalAlign=middle;whiteSpace=wrap;rounded=0;" vertex="1" parent="1">
          <mxGeometry x="620" y="1375" width="60" height="30" as="geometry" />
        </mxCell>
        <mxCell id="lIAzLQjcqMZzX_TsZZTF-54" value="Arbitration" style="rounded=1;whiteSpace=wrap;html=1;" vertex="1" parent="1">
          <mxGeometry x="135" y="1370" width="60" height="40" as="geometry" />
        </mxCell>
        <mxCell id="lIAzLQjcqMZzX_TsZZTF-55" value="Control" style="rounded=1;whiteSpace=wrap;html=1;" vertex="1" parent="1">
          <mxGeometry x="205" y="1370" width="60" height="40" as="geometry" />
        </mxCell>
        <mxCell id="lIAzLQjcqMZzX_TsZZTF-56" value="Data" style="rounded=1;whiteSpace=wrap;html=1;" vertex="1" parent="1">
          <mxGeometry x="300" y="1370" width="140" height="40" as="geometry" />
        </mxCell>
        <mxCell id="lIAzLQjcqMZzX_TsZZTF-57" value="CRC" style="rounded=1;whiteSpace=wrap;html=1;fillColor=#f8cecc;strokeColor=#b85450;" vertex="1" parent="1">
          <mxGeometry x="470" y="1370" width="60" height="40" as="geometry" />
        </mxCell>
        <mxCell id="lIAzLQjcqMZzX_TsZZTF-58" value="ACK" style="rounded=1;whiteSpace=wrap;html=1;fillColor=#d5e8d4;strokeColor=#82b366;" vertex="1" parent="1">
          <mxGeometry x="540" y="1370" width="60" height="40" as="geometry" />
        </mxCell>
        <mxCell id="lIAzLQjcqMZzX_TsZZTF-59" value="" style="endArrow=classic;html=1;rounded=0;exitX=0.5;exitY=1;exitDx=0;exitDy=0;" edge="1" parent="1" source="lIAzLQjcqMZzX_TsZZTF-54">
          <mxGeometry width="50" height="50" relative="1" as="geometry">
            <mxPoint x="340" y="1460" as="sourcePoint" />
            <mxPoint x="165" y="1480" as="targetPoint" />
          </mxGeometry>
        </mxCell>
        <mxCell id="lIAzLQjcqMZzX_TsZZTF-61" value="" style="rounded=1;whiteSpace=wrap;html=1;" vertex="1" parent="1">
          <mxGeometry x="100" y="1480" width="130" height="50" as="geometry" />
        </mxCell>
        <mxCell id="lIAzLQjcqMZzX_TsZZTF-62" value="ID" style="ellipse;whiteSpace=wrap;html=1;aspect=fixed;fillColor=#dae8fc;strokeColor=#6c8ebf;" vertex="1" parent="1">
          <mxGeometry x="115" y="1487.5" width="35" height="35" as="geometry" />
        </mxCell>
        <mxCell id="lIAzLQjcqMZzX_TsZZTF-63" value="RTR bit" style="ellipse;whiteSpace=wrap;html=1;aspect=fixed;" vertex="1" parent="1">
          <mxGeometry x="170" y="1485" width="40" height="40" as="geometry" />
        </mxCell>
        <mxCell id="lIAzLQjcqMZzX_TsZZTF-64" value="" style="endArrow=none;dashed=1;html=1;dashPattern=1 3;strokeWidth=2;rounded=0;exitX=0.5;exitY=1;exitDx=0;exitDy=0;" edge="1" parent="1" source="lIAzLQjcqMZzX_TsZZTF-62">
          <mxGeometry width="50" height="50" relative="1" as="geometry">
            <mxPoint x="340" y="1460" as="sourcePoint" />
            <mxPoint x="80" y="1560" as="targetPoint" />
          </mxGeometry>
        </mxCell>
        <mxCell id="lIAzLQjcqMZzX_TsZZTF-65" value="&lt;div&gt;11b len&lt;/div&gt;&lt;div&gt;&lt;br&gt;&lt;/div&gt;" style="text;html=1;align=center;verticalAlign=middle;whiteSpace=wrap;rounded=0;" vertex="1" parent="1">
          <mxGeometry x="40" y="1560" width="60" height="30" as="geometry" />
        </mxCell>
        <mxCell id="lIAzLQjcqMZzX_TsZZTF-66" value="" style="endArrow=none;dashed=1;html=1;dashPattern=1 3;strokeWidth=2;rounded=0;" edge="1" parent="1">
          <mxGeometry width="50" height="50" relative="1" as="geometry">
            <mxPoint x="160" y="1560" as="sourcePoint" />
            <mxPoint x="195" y="1522.5" as="targetPoint" />
          </mxGeometry>
        </mxCell>
        <mxCell id="lIAzLQjcqMZzX_TsZZTF-67" value="1b len (dominant)" style="text;html=1;align=center;verticalAlign=middle;whiteSpace=wrap;rounded=0;" vertex="1" parent="1">
          <mxGeometry x="115" y="1560" width="60" height="30" as="geometry" />
        </mxCell>
        <mxCell id="lIAzLQjcqMZzX_TsZZTF-68" value="" style="endArrow=none;dashed=1;html=1;dashPattern=1 3;strokeWidth=2;rounded=0;entryX=0.5;entryY=1;entryDx=0;entryDy=0;" edge="1" parent="1" target="lIAzLQjcqMZzX_TsZZTF-55">
          <mxGeometry width="50" height="50" relative="1" as="geometry">
            <mxPoint x="280" y="1490" as="sourcePoint" />
            <mxPoint x="390" y="1410" as="targetPoint" />
          </mxGeometry>
        </mxCell>
        <mxCell id="lIAzLQjcqMZzX_TsZZTF-69" value="6b len, 4 bit for DATA LEN CODE, 2 for future" style="text;html=1;align=center;verticalAlign=middle;whiteSpace=wrap;rounded=0;" vertex="1" parent="1">
          <mxGeometry x="240" y="1500" width="80" height="30" as="geometry" />
        </mxCell>
        <mxCell id="lIAzLQjcqMZzX_TsZZTF-70" value="" style="endArrow=classic;html=1;rounded=0;" edge="1" parent="1" source="lIAzLQjcqMZzX_TsZZTF-69">
          <mxGeometry width="50" height="50" relative="1" as="geometry">
            <mxPoint x="340" y="1510" as="sourcePoint" />
            <mxPoint x="120" y="1640" as="targetPoint" />
          </mxGeometry>
        </mxCell>
        <mxCell id="lIAzLQjcqMZzX_TsZZTF-71" value="" style="rounded=1;whiteSpace=wrap;html=1;" vertex="1" parent="1">
          <mxGeometry x="20" y="1640" width="220" height="60" as="geometry" />
        </mxCell>
        <mxCell id="lIAzLQjcqMZzX_TsZZTF-72" value="r1" style="ellipse;whiteSpace=wrap;html=1;aspect=fixed;fillColor=#f8cecc;strokeColor=#b85450;" vertex="1" parent="1">
          <mxGeometry x="30" y="1655" width="30" height="30" as="geometry" />
        </mxCell>
        <mxCell id="lIAzLQjcqMZzX_TsZZTF-73" value="r0" style="ellipse;whiteSpace=wrap;html=1;aspect=fixed;fillColor=#f8cecc;strokeColor=#b85450;" vertex="1" parent="1">
          <mxGeometry x="60" y="1655" width="30" height="30" as="geometry" />
        </mxCell>
        <mxCell id="lIAzLQjcqMZzX_TsZZTF-74" value="dlc3" style="ellipse;whiteSpace=wrap;html=1;aspect=fixed;" vertex="1" parent="1">
          <mxGeometry x="105" y="1655" width="30" height="30" as="geometry" />
        </mxCell>
        <mxCell id="lIAzLQjcqMZzX_TsZZTF-75" value="dlc2" style="ellipse;whiteSpace=wrap;html=1;aspect=fixed;" vertex="1" parent="1">
          <mxGeometry x="130" y="1655" width="30" height="30" as="geometry" />
        </mxCell>
        <mxCell id="lIAzLQjcqMZzX_TsZZTF-76" value="dlc1" style="ellipse;whiteSpace=wrap;html=1;aspect=fixed;" vertex="1" parent="1">
          <mxGeometry x="155" y="1655" width="30" height="30" as="geometry" />
        </mxCell>
        <mxCell id="lIAzLQjcqMZzX_TsZZTF-77" value="dlc0" style="ellipse;whiteSpace=wrap;html=1;aspect=fixed;" vertex="1" parent="1">
          <mxGeometry x="185" y="1655" width="30" height="30" as="geometry" />
        </mxCell>
        <mxCell id="lIAzLQjcqMZzX_TsZZTF-78" value="" style="endArrow=none;dashed=1;html=1;dashPattern=1 3;strokeWidth=2;rounded=0;entryX=0.5;entryY=1;entryDx=0;entryDy=0;" edge="1" parent="1" target="lIAzLQjcqMZzX_TsZZTF-56">
          <mxGeometry width="50" height="50" relative="1" as="geometry">
            <mxPoint x="370" y="1440" as="sourcePoint" />
            <mxPoint x="400" y="1420" as="targetPoint" />
          </mxGeometry>
        </mxCell>
        <mxCell id="lIAzLQjcqMZzX_TsZZTF-79" value="between 0 and 8 BYTES, MSB first" style="text;html=1;align=center;verticalAlign=middle;whiteSpace=wrap;rounded=0;" vertex="1" parent="1">
          <mxGeometry x="340" y="1455" width="60" height="30" as="geometry" />
        </mxCell>
        <mxCell id="lIAzLQjcqMZzX_TsZZTF-80" value="" style="endArrow=classic;html=1;rounded=0;exitX=0.5;exitY=1;exitDx=0;exitDy=0;" edge="1" parent="1" source="lIAzLQjcqMZzX_TsZZTF-57">
          <mxGeometry width="50" height="50" relative="1" as="geometry">
            <mxPoint x="440" y="1480" as="sourcePoint" />
            <mxPoint x="440" y="1560" as="targetPoint" />
          </mxGeometry>
        </mxCell>
        <mxCell id="lIAzLQjcqMZzX_TsZZTF-81" value="" style="rounded=1;whiteSpace=wrap;html=1;" vertex="1" parent="1">
          <mxGeometry x="335" y="1560" width="185" height="60" as="geometry" />
        </mxCell>
        <mxCell id="lIAzLQjcqMZzX_TsZZTF-82" value="CRC Seq" style="ellipse;whiteSpace=wrap;html=1;aspect=fixed;fillColor=#d5e8d4;strokeColor=#82b366;" vertex="1" parent="1">
          <mxGeometry x="360" y="1565" width="50" height="50" as="geometry" />
        </mxCell>
        <mxCell id="lIAzLQjcqMZzX_TsZZTF-83" value="CRC Delim" style="ellipse;whiteSpace=wrap;html=1;aspect=fixed;" vertex="1" parent="1">
          <mxGeometry x="440" y="1565" width="50" height="50" as="geometry" />
        </mxCell>
        <mxCell id="lIAzLQjcqMZzX_TsZZTF-84" value="" style="endArrow=classic;html=1;rounded=0;exitX=0.5;exitY=1;exitDx=0;exitDy=0;" edge="1" parent="1" source="lIAzLQjcqMZzX_TsZZTF-58" target="lIAzLQjcqMZzX_TsZZTF-85">
          <mxGeometry width="50" height="50" relative="1" as="geometry">
            <mxPoint x="630" y="1480" as="sourcePoint" />
            <mxPoint x="640" y="1560" as="targetPoint" />
          </mxGeometry>
        </mxCell>
        <mxCell id="lIAzLQjcqMZzX_TsZZTF-85" value="" style="rounded=1;whiteSpace=wrap;html=1;" vertex="1" parent="1">
          <mxGeometry x="570" y="1560" width="190" height="60" as="geometry" />
        </mxCell>
        <mxCell id="lIAzLQjcqMZzX_TsZZTF-86" value="ACK Slot" style="ellipse;whiteSpace=wrap;html=1;aspect=fixed;" vertex="1" parent="1">
          <mxGeometry x="590" y="1565" width="51.25" height="51.25" as="geometry" />
        </mxCell>
        <mxCell id="lIAzLQjcqMZzX_TsZZTF-87" value="ACK Delim" style="ellipse;whiteSpace=wrap;html=1;aspect=fixed;" vertex="1" parent="1">
          <mxGeometry x="680" y="1565" width="51.25" height="51.25" as="geometry" />
        </mxCell>
        <mxCell id="lIAzLQjcqMZzX_TsZZTF-88" value="" style="endArrow=none;dashed=1;html=1;dashPattern=1 3;strokeWidth=2;rounded=0;entryX=0.5;entryY=1;entryDx=0;entryDy=0;" edge="1" parent="1" target="lIAzLQjcqMZzX_TsZZTF-86">
          <mxGeometry width="50" height="50" relative="1" as="geometry">
            <mxPoint x="616" y="1650" as="sourcePoint" />
            <mxPoint x="730" y="1430" as="targetPoint" />
          </mxGeometry>
        </mxCell>
        <mxCell id="lIAzLQjcqMZzX_TsZZTF-89" value="" style="endArrow=none;dashed=1;html=1;dashPattern=1 3;strokeWidth=2;rounded=0;entryX=0.597;entryY=0.982;entryDx=0;entryDy=0;entryPerimeter=0;" edge="1" parent="1" target="lIAzLQjcqMZzX_TsZZTF-87">
          <mxGeometry width="50" height="50" relative="1" as="geometry">
            <mxPoint x="710" y="1650" as="sourcePoint" />
            <mxPoint x="626" y="1626" as="targetPoint" />
          </mxGeometry>
        </mxCell>
        <mxCell id="lIAzLQjcqMZzX_TsZZTF-91" value="1 recessive bit" style="text;html=1;align=center;verticalAlign=middle;whiteSpace=wrap;rounded=0;" vertex="1" parent="1">
          <mxGeometry x="680" y="1655" width="70" height="30" as="geometry" />
        </mxCell>
        <mxCell id="lIAzLQjcqMZzX_TsZZTF-92" value="1b len" style="text;html=1;align=center;verticalAlign=middle;whiteSpace=wrap;rounded=0;" vertex="1" parent="1">
          <mxGeometry x="585.63" y="1655" width="60" height="30" as="geometry" />
        </mxCell>
        <mxCell id="lIAzLQjcqMZzX_TsZZTF-93" value="" style="endArrow=none;dashed=1;html=1;dashPattern=1 3;strokeWidth=2;rounded=0;exitX=0.718;exitY=0.98;exitDx=0;exitDy=0;exitPerimeter=0;" edge="1" parent="1" source="lIAzLQjcqMZzX_TsZZTF-81" target="lIAzLQjcqMZzX_TsZZTF-94">
          <mxGeometry width="50" height="50" relative="1" as="geometry">
            <mxPoint x="370" y="1600" as="sourcePoint" />
            <mxPoint x="470" y="1650" as="targetPoint" />
          </mxGeometry>
        </mxCell>
        <mxCell id="lIAzLQjcqMZzX_TsZZTF-94" value="1 recessive bit" style="text;html=1;align=center;verticalAlign=middle;whiteSpace=wrap;rounded=0;" vertex="1" parent="1">
          <mxGeometry x="470" y="1655" width="70" height="30" as="geometry" />
        </mxCell>
        <mxCell id="lIAzLQjcqMZzX_TsZZTF-95" value="" style="endArrow=none;dashed=1;html=1;dashPattern=1 3;strokeWidth=2;rounded=0;entryX=0.5;entryY=1;entryDx=0;entryDy=0;" edge="1" parent="1" target="lIAzLQjcqMZzX_TsZZTF-82">
          <mxGeometry width="50" height="50" relative="1" as="geometry">
            <mxPoint x="360" y="1650" as="sourcePoint" />
            <mxPoint x="420" y="1550" as="targetPoint" />
          </mxGeometry>
        </mxCell>
        <mxCell id="lIAzLQjcqMZzX_TsZZTF-96" value="15 bit shift register" style="text;html=1;align=center;verticalAlign=middle;whiteSpace=wrap;rounded=0;" vertex="1" parent="1">
          <mxGeometry x="320" y="1655" width="60" height="30" as="geometry" />
        </mxCell>
        <mxCell id="lIAzLQjcqMZzX_TsZZTF-97" value="&lt;font style=&quot;font-size: 10px;&quot;&gt;destuffed bit stream of SOF, ARBITR, CTRL, DATA field and 15 lowest coeff by 0&lt;/font&gt;" style="shape=hexagon;perimeter=hexagonPerimeter2;whiteSpace=wrap;html=1;fixedSize=1;" vertex="1" parent="1">
          <mxGeometry x="127.5" y="1760" width="155" height="60" as="geometry" />
        </mxCell>
        <mxCell id="lIAzLQjcqMZzX_TsZZTF-98" value="&lt;font style=&quot;font-size: 10px;&quot;&gt;x^15+x^14+x^10+x^8+x^7+x^4+x^3+1&lt;/font&gt;" style="shape=hexagon;perimeter=hexagonPerimeter2;whiteSpace=wrap;html=1;fixedSize=1;" vertex="1" parent="1">
          <mxGeometry x="310" y="1765" width="185" height="50" as="geometry" />
        </mxCell>
        <mxCell id="lIAzLQjcqMZzX_TsZZTF-99" value="Polynomial to be divided" style="text;html=1;align=center;verticalAlign=middle;whiteSpace=wrap;rounded=0;" vertex="1" parent="1">
          <mxGeometry x="160" y="1730" width="90" height="30" as="geometry" />
        </mxCell>
        <mxCell id="lIAzLQjcqMZzX_TsZZTF-100" value="Generator polynomial" style="text;html=1;align=center;verticalAlign=middle;whiteSpace=wrap;rounded=0;" vertex="1" parent="1">
          <mxGeometry x="367.5" y="1730" width="60" height="30" as="geometry" />
        </mxCell>
        <mxCell id="lIAzLQjcqMZzX_TsZZTF-101" value="" style="endArrow=none;html=1;rounded=0;" edge="1" parent="1">
          <mxGeometry width="50" height="50" relative="1" as="geometry">
            <mxPoint x="282.5" y="1820" as="sourcePoint" />
            <mxPoint x="312.5" y="1760" as="targetPoint" />
          </mxGeometry>
        </mxCell>
        <mxCell id="lIAzLQjcqMZzX_TsZZTF-102" value="" style="endArrow=classic;html=1;rounded=0;exitX=0.5;exitY=1;exitDx=0;exitDy=0;" edge="1" parent="1" source="lIAzLQjcqMZzX_TsZZTF-96">
          <mxGeometry width="50" height="50" relative="1" as="geometry">
            <mxPoint x="320" y="1650" as="sourcePoint" />
            <mxPoint x="320" y="1730" as="targetPoint" />
          </mxGeometry>
        </mxCell>
        <mxCell id="lIAzLQjcqMZzX_TsZZTF-105" value="" style="shape=process;whiteSpace=wrap;html=1;backgroundOutline=1;" vertex="1" parent="1">
          <mxGeometry x="1000" y="160" width="440" height="60" as="geometry" />
        </mxCell>
        <mxCell id="lIAzLQjcqMZzX_TsZZTF-106" value="REMOTE FRAME" style="text;html=1;align=center;verticalAlign=middle;whiteSpace=wrap;rounded=0;" vertex="1" parent="1">
          <mxGeometry x="1145" y="130" width="110" height="30" as="geometry" />
        </mxCell>
        <mxCell id="lIAzLQjcqMZzX_TsZZTF-107" value="&lt;div&gt;SOF&amp;nbsp;&lt;/div&gt;&lt;div&gt;(1b)&lt;/div&gt;" style="text;html=1;align=center;verticalAlign=middle;whiteSpace=wrap;rounded=0;" vertex="1" parent="1">
          <mxGeometry x="990" y="175" width="60" height="30" as="geometry" />
        </mxCell>
        <mxCell id="lIAzLQjcqMZzX_TsZZTF-109" value="Arbitration" style="rounded=1;whiteSpace=wrap;html=1;" vertex="1" parent="1">
          <mxGeometry x="1075" y="170" width="60" height="40" as="geometry" />
        </mxCell>
        <mxCell id="lIAzLQjcqMZzX_TsZZTF-110" value="Control" style="rounded=1;whiteSpace=wrap;html=1;" vertex="1" parent="1">
          <mxGeometry x="1145" y="170" width="60" height="40" as="geometry" />
        </mxCell>
        <mxCell id="lIAzLQjcqMZzX_TsZZTF-112" value="CRC" style="rounded=1;whiteSpace=wrap;html=1;fillColor=#f8cecc;strokeColor=#b85450;" vertex="1" parent="1">
          <mxGeometry x="1245" y="170" width="60" height="40" as="geometry" />
        </mxCell>
        <mxCell id="lIAzLQjcqMZzX_TsZZTF-113" value="ACK" style="rounded=1;whiteSpace=wrap;html=1;fillColor=#d5e8d4;strokeColor=#82b366;" vertex="1" parent="1">
          <mxGeometry x="1310" y="170" width="60" height="40" as="geometry" />
        </mxCell>
        <mxCell id="lIAzLQjcqMZzX_TsZZTF-114" value="EOF" style="text;html=1;align=center;verticalAlign=middle;whiteSpace=wrap;rounded=0;" vertex="1" parent="1">
          <mxGeometry x="1390" y="170" width="60" height="30" as="geometry" />
        </mxCell>
        <mxCell id="lIAzLQjcqMZzX_TsZZTF-115" value="&lt;h1 style=&quot;margin-top: 0px;&quot;&gt;&lt;font style=&quot;font-size: 20px;&quot;&gt;3.2 Remote Frame &lt;br&gt;&lt;/font&gt;&lt;/h1&gt;&lt;p&gt;A station acting as receiver for specific data can initiate respective data transmission by its source node by sending a remote frame.&lt;br&gt;&lt;/p&gt;" style="text;html=1;whiteSpace=wrap;overflow=hidden;rounded=0;" vertex="1" parent="1">
          <mxGeometry x="1120" width="180" height="120" as="geometry" />
        </mxCell>
        <mxCell id="lIAzLQjcqMZzX_TsZZTF-116" value="" style="rounded=1;whiteSpace=wrap;html=1;" vertex="1" parent="1">
          <mxGeometry x="1030" y="270" width="130" height="50" as="geometry" />
        </mxCell>
        <mxCell id="lIAzLQjcqMZzX_TsZZTF-117" value="ID" style="ellipse;whiteSpace=wrap;html=1;aspect=fixed;fillColor=#dae8fc;strokeColor=#6c8ebf;" vertex="1" parent="1">
          <mxGeometry x="1045" y="277.5" width="35" height="35" as="geometry" />
        </mxCell>
        <mxCell id="lIAzLQjcqMZzX_TsZZTF-118" value="RTR bit" style="ellipse;whiteSpace=wrap;html=1;aspect=fixed;" vertex="1" parent="1">
          <mxGeometry x="1100" y="275" width="40" height="40" as="geometry" />
        </mxCell>
        <mxCell id="lIAzLQjcqMZzX_TsZZTF-119" value="" style="endArrow=classic;html=1;rounded=0;exitX=0.5;exitY=1;exitDx=0;exitDy=0;entryX=0.527;entryY=-0.012;entryDx=0;entryDy=0;entryPerimeter=0;" edge="1" parent="1" source="lIAzLQjcqMZzX_TsZZTF-109" target="lIAzLQjcqMZzX_TsZZTF-116">
          <mxGeometry width="50" height="50" relative="1" as="geometry">
            <mxPoint x="1105" y="205" as="sourcePoint" />
            <mxPoint x="1120" y="275" as="targetPoint" />
          </mxGeometry>
        </mxCell>
        <mxCell id="lIAzLQjcqMZzX_TsZZTF-120" value="" style="endArrow=none;dashed=1;html=1;dashPattern=1 3;strokeWidth=2;rounded=0;entryX=0.5;entryY=1;entryDx=0;entryDy=0;" edge="1" parent="1" target="lIAzLQjcqMZzX_TsZZTF-118">
          <mxGeometry width="50" height="50" relative="1" as="geometry">
            <mxPoint x="1100" y="360" as="sourcePoint" />
            <mxPoint x="1120" y="290" as="targetPoint" />
            <Array as="points">
              <mxPoint x="1110" y="340" />
            </Array>
          </mxGeometry>
        </mxCell>
        <mxCell id="lIAzLQjcqMZzX_TsZZTF-121" value="1 bit should be recessive" style="text;html=1;align=center;verticalAlign=middle;whiteSpace=wrap;rounded=0;" vertex="1" parent="1">
          <mxGeometry x="1050" y="360" width="60" height="30" as="geometry" />
        </mxCell>
        <mxCell id="lIAzLQjcqMZzX_TsZZTF-122" value="" style="endArrow=classic;html=1;rounded=0;exitX=0.5;exitY=1;exitDx=0;exitDy=0;" edge="1" parent="1" source="lIAzLQjcqMZzX_TsZZTF-110">
          <mxGeometry width="50" height="50" relative="1" as="geometry">
            <mxPoint x="1170" y="370" as="sourcePoint" />
            <mxPoint x="1240" y="300" as="targetPoint" />
          </mxGeometry>
        </mxCell>
        <mxCell id="lIAzLQjcqMZzX_TsZZTF-123" value="Data Lenght can be set to 0..8 and it will correspond to the respective data frame we&#39;re calling" style="text;html=1;align=center;verticalAlign=middle;whiteSpace=wrap;rounded=0;" vertex="1" parent="1">
          <mxGeometry x="1170" y="312.5" width="140" height="30" as="geometry" />
        </mxCell>
        <mxCell id="lIAzLQjcqMZzX_TsZZTF-125" value="&lt;h1 style=&quot;margin-top: 0px; font-size: 20px;&quot;&gt;3.3 Error Frame&lt;br&gt;&lt;/h1&gt;&lt;p&gt;&lt;br&gt;&lt;/p&gt;" style="text;html=1;whiteSpace=wrap;overflow=hidden;rounded=0;" vertex="1" parent="1">
          <mxGeometry x="1120" y="430" width="180" height="60" as="geometry" />
        </mxCell>
        <mxCell id="lIAzLQjcqMZzX_TsZZTF-126" value="" style="shape=process;whiteSpace=wrap;html=1;backgroundOutline=1;" vertex="1" parent="1">
          <mxGeometry x="1002.5" y="500" width="437.5" height="60" as="geometry" />
        </mxCell>
        <mxCell id="lIAzLQjcqMZzX_TsZZTF-127" value="Error Flag" style="rounded=1;whiteSpace=wrap;html=1;fillColor=#f8cecc;strokeColor=#b85450;" vertex="1" parent="1">
          <mxGeometry x="1080" y="505" width="100" height="50" as="geometry" />
        </mxCell>
        <mxCell id="lIAzLQjcqMZzX_TsZZTF-128" value="Error Delimiter" style="rounded=1;whiteSpace=wrap;html=1;" vertex="1" parent="1">
          <mxGeometry x="1260" y="505" width="100" height="50" as="geometry" />
        </mxCell>
        <mxCell id="lIAzLQjcqMZzX_TsZZTF-129" value="" style="endArrow=classic;html=1;rounded=0;exitX=0.089;exitY=0.983;exitDx=0;exitDy=0;exitPerimeter=0;" edge="1" parent="1" source="lIAzLQjcqMZzX_TsZZTF-127">
          <mxGeometry width="50" height="50" relative="1" as="geometry">
            <mxPoint x="1110" y="610" as="sourcePoint" />
            <mxPoint x="1000" y="640" as="targetPoint" />
          </mxGeometry>
        </mxCell>
        <mxCell id="lIAzLQjcqMZzX_TsZZTF-130" value="" style="endArrow=classic;html=1;rounded=0;exitX=0.923;exitY=0.983;exitDx=0;exitDy=0;exitPerimeter=0;entryX=0.5;entryY=0;entryDx=0;entryDy=0;" edge="1" parent="1" source="lIAzLQjcqMZzX_TsZZTF-127" target="lIAzLQjcqMZzX_TsZZTF-132">
          <mxGeometry width="50" height="50" relative="1" as="geometry">
            <mxPoint x="1099" y="564" as="sourcePoint" />
            <mxPoint x="1200" y="640" as="targetPoint" />
          </mxGeometry>
        </mxCell>
        <mxCell id="lIAzLQjcqMZzX_TsZZTF-131" value="6 conseq dominant bits (111111)" style="rounded=1;whiteSpace=wrap;html=1;fillColor=#d5e8d4;strokeColor=#82b366;" vertex="1" parent="1">
          <mxGeometry x="970" y="640" width="120" height="60" as="geometry" />
        </mxCell>
        <mxCell id="lIAzLQjcqMZzX_TsZZTF-132" value="6 conseq recessive bits" style="rounded=1;whiteSpace=wrap;html=1;fillColor=#e1d5e7;strokeColor=#9673a6;" vertex="1" parent="1">
          <mxGeometry x="1200" y="640" width="120" height="60" as="geometry" />
        </mxCell>
        <mxCell id="lIAzLQjcqMZzX_TsZZTF-133" value="Active Error Flag" style="text;html=1;align=center;verticalAlign=middle;whiteSpace=wrap;rounded=0;" vertex="1" parent="1">
          <mxGeometry x="1040" y="610" width="70" height="30" as="geometry" />
        </mxCell>
        <mxCell id="lIAzLQjcqMZzX_TsZZTF-134" value="Passive Error Flag" style="text;html=1;align=center;verticalAlign=middle;whiteSpace=wrap;rounded=0;" vertex="1" parent="1">
          <mxGeometry x="1175" y="610" width="70" height="30" as="geometry" />
        </mxCell>
        <mxCell id="lIAzLQjcqMZzX_TsZZTF-135" value="" style="endArrow=none;dashed=1;html=1;dashPattern=1 3;strokeWidth=2;rounded=0;entryX=0.5;entryY=1;entryDx=0;entryDy=0;" edge="1" parent="1" target="lIAzLQjcqMZzX_TsZZTF-128">
          <mxGeometry width="50" height="50" relative="1" as="geometry">
            <mxPoint x="1350" y="590" as="sourcePoint" />
            <mxPoint x="1360" y="570" as="targetPoint" />
          </mxGeometry>
        </mxCell>
        <mxCell id="lIAzLQjcqMZzX_TsZZTF-136" value="8 recessive bits" style="text;html=1;align=center;verticalAlign=middle;whiteSpace=wrap;rounded=0;" vertex="1" parent="1">
          <mxGeometry x="1320" y="600" width="60" height="30" as="geometry" />
        </mxCell>
        <mxCell id="lIAzLQjcqMZzX_TsZZTF-137" value="&lt;h1 style=&quot;margin-top: 0px;&quot;&gt;&lt;font style=&quot;font-size: 20px;&quot;&gt;3.4 Overload Frame&lt;br&gt;&lt;/font&gt;&lt;/h1&gt;&lt;p&gt;The start of an OVERLOAD FRAME due to OVERLOAD condition 1 is only allowed to&lt;br&gt;be started at the first bit time of an expected INTERMISSION, whereas OVERLOAD&lt;br&gt;FRAMEs due to OVERLOAD condition 2 start one bit after detecting the ’dominant’ bit.&lt;br&gt;&lt;/p&gt;" style="text;html=1;whiteSpace=wrap;overflow=hidden;rounded=0;" vertex="1" parent="1">
          <mxGeometry x="1120" y="760" width="270" height="120" as="geometry" />
        </mxCell>
        <mxCell id="lIAzLQjcqMZzX_TsZZTF-138" value="" style="shape=process;whiteSpace=wrap;html=1;backgroundOutline=1;" vertex="1" parent="1">
          <mxGeometry x="1002.5" y="920" width="440" height="60" as="geometry" />
        </mxCell>
        <mxCell id="lIAzLQjcqMZzX_TsZZTF-139" value="&lt;div&gt;Overload Flag&lt;/div&gt;&lt;div&gt;6 dominant bits&lt;br&gt;&lt;/div&gt;" style="rounded=1;whiteSpace=wrap;html=1;" vertex="1" parent="1">
          <mxGeometry x="1082.5" y="925" width="90" height="50" as="geometry" />
        </mxCell>
        <mxCell id="lIAzLQjcqMZzX_TsZZTF-140" value="&lt;div&gt;Overload Delimeter&lt;/div&gt;&lt;div&gt;8 recessive bits&lt;br&gt;&lt;/div&gt;" style="rounded=1;whiteSpace=wrap;html=1;" vertex="1" parent="1">
          <mxGeometry x="1257.5" y="925" width="105" height="50" as="geometry" />
        </mxCell>
        <mxCell id="lIAzLQjcqMZzX_TsZZTF-141" value="&lt;h1 style=&quot;margin-top: 0px;&quot;&gt;&lt;font style=&quot;font-size: 20px;&quot;&gt;3.5 Interframe Spacing&lt;br&gt;&lt;/font&gt;&lt;/h1&gt;&lt;p&gt;Data frames and Remote frames are separated by preceding frames by a bit field called interframe space. &lt;br&gt;&lt;/p&gt;&lt;p&gt;Overload and Error frames aren&#39;t preceded by an interframe space.&lt;/p&gt;&lt;p&gt;This space contains Intermission adn Bus Idle and Suspend Transmission (for error passive stations which have been transmitter of the prev message)&lt;br&gt;&lt;/p&gt;" style="text;html=1;whiteSpace=wrap;overflow=hidden;rounded=0;" vertex="1" parent="1">
          <mxGeometry x="1120" y="1020" width="310" height="180" as="geometry" />
        </mxCell>
        <mxCell id="lIAzLQjcqMZzX_TsZZTF-142" value="" style="shape=process;whiteSpace=wrap;html=1;backgroundOutline=1;" vertex="1" parent="1">
          <mxGeometry x="1002.5" y="1230" width="437.5" height="60" as="geometry" />
        </mxCell>
        <mxCell id="lIAzLQjcqMZzX_TsZZTF-143" value="&lt;div&gt;Intermission&lt;/div&gt;&lt;div&gt;3 recessive bits&lt;br&gt;&lt;/div&gt;" style="rounded=1;whiteSpace=wrap;html=1;" vertex="1" parent="1">
          <mxGeometry x="1077.5" y="1235" width="92.5" height="50" as="geometry" />
        </mxCell>
        <mxCell id="lIAzLQjcqMZzX_TsZZTF-144" value="&lt;div&gt;Bus Idle&lt;br&gt;&lt;/div&gt;&lt;div&gt;May be arbitrary lenght&lt;/div&gt;" style="rounded=1;whiteSpace=wrap;html=1;" vertex="1" parent="1">
          <mxGeometry x="1255" y="1235" width="92.5" height="50" as="geometry" />
        </mxCell>
        <mxCell id="lIAzLQjcqMZzX_TsZZTF-145" value="" style="endArrow=classic;html=1;rounded=0;exitX=0.5;exitY=1;exitDx=0;exitDy=0;" edge="1" parent="1" source="lIAzLQjcqMZzX_TsZZTF-144" target="lIAzLQjcqMZzX_TsZZTF-146">
          <mxGeometry width="50" height="50" relative="1" as="geometry">
            <mxPoint x="1230" y="1290" as="sourcePoint" />
            <mxPoint x="1240" y="1360" as="targetPoint" />
          </mxGeometry>
        </mxCell>
        <mxCell id="lIAzLQjcqMZzX_TsZZTF-146" value="&lt;div align=&quot;left&quot;&gt;During this time the bus is recognized as free and any station can start transmission.Detection of a dominant bit on the bus is interpreted as SOF. &lt;br&gt;&lt;/div&gt;&lt;div align=&quot;left&quot;&gt;A pending message waiting for transmission is starrted in the first bit following Intermission.&lt;br&gt;&lt;/div&gt;" style="text;html=1;align=left;verticalAlign=middle;whiteSpace=wrap;rounded=0;" vertex="1" parent="1">
          <mxGeometry x="1210" y="1305" width="220" height="115" as="geometry" />
        </mxCell>
        <mxCell id="lIAzLQjcqMZzX_TsZZTF-147" value="" style="shape=process;whiteSpace=wrap;html=1;backgroundOutline=1;" vertex="1" parent="1">
          <mxGeometry x="1001.25" y="1440" width="437.5" height="60" as="geometry" />
        </mxCell>
        <mxCell id="lIAzLQjcqMZzX_TsZZTF-148" value="&lt;div&gt;Intermission&lt;/div&gt;&lt;div&gt;3 recessive bits&lt;br&gt;&lt;/div&gt;" style="rounded=1;whiteSpace=wrap;html=1;" vertex="1" parent="1">
          <mxGeometry x="1058.75" y="1445" width="92.5" height="50" as="geometry" />
        </mxCell>
        <mxCell id="lIAzLQjcqMZzX_TsZZTF-149" value="May be arbitrary lenght" style="rounded=1;whiteSpace=wrap;html=1;" vertex="1" parent="1">
          <mxGeometry x="1287.5" y="1445" width="92.5" height="50" as="geometry" />
        </mxCell>
        <mxCell id="lIAzLQjcqMZzX_TsZZTF-151" value="&lt;div&gt;Suspend Transmission&lt;/div&gt;&lt;div&gt;8 recessive bits&lt;br&gt;&lt;/div&gt;" style="rounded=1;whiteSpace=wrap;html=1;" vertex="1" parent="1">
          <mxGeometry x="1172.5" y="1445" width="100" height="50" as="geometry" />
        </mxCell>
        <mxCell id="lIAzLQjcqMZzX_TsZZTF-152" value="&lt;h1 style=&quot;margin-top: 0px;&quot;&gt;&lt;font style=&quot;font-size: 20px;&quot;&gt;3.6 Defining Transmitter/Receiver&lt;br&gt;&lt;/font&gt;&lt;/h1&gt;&lt;p&gt;&lt;br&gt;&lt;/p&gt;" style="text;html=1;whiteSpace=wrap;overflow=hidden;rounded=0;" vertex="1" parent="1">
          <mxGeometry x="1125" y="1550" width="225" height="60" as="geometry" />
        </mxCell>
        <mxCell id="lIAzLQjcqMZzX_TsZZTF-153" value="&lt;div&gt;Transmitter&lt;/div&gt;&lt;div&gt;A unit originating a message&lt;/div&gt;&lt;div&gt;Unit is transmitter until bus is idle or&lt;/div&gt;&lt;div&gt;&amp;nbsp;unit loses arbitration&lt;br&gt;&lt;/div&gt;" style="image;aspect=fixed;html=1;points=[];align=center;fontSize=12;image=img/lib/azure2/other/Defender_Engineering_Station.svg;" vertex="1" parent="1">
          <mxGeometry x="1028.5" y="1640" width="68" height="62.839999999999996" as="geometry" />
        </mxCell>
        <mxCell id="lIAzLQjcqMZzX_TsZZTF-154" value="&lt;div&gt;Receiver&lt;/div&gt;&lt;div&gt;A unit who is not Transmitter of &lt;br&gt;&lt;/div&gt;&lt;div&gt;that message and the bus is not idle&lt;br&gt;&lt;/div&gt;" style="image;aspect=fixed;html=1;points=[];align=center;fontSize=12;image=img/lib/azure2/other/Defender_Engineering_Station.svg;" vertex="1" parent="1">
          <mxGeometry x="1330" y="1640" width="68" height="62.839999999999996" as="geometry" />
        </mxCell>
        <mxCell id="lIAzLQjcqMZzX_TsZZTF-155" value="" style="shape=flexArrow;endArrow=classic;html=1;rounded=0;exitX=1.012;exitY=0.376;exitDx=0;exitDy=0;exitPerimeter=0;entryX=-0.008;entryY=0.409;entryDx=0;entryDy=0;entryPerimeter=0;" edge="1" parent="1" source="lIAzLQjcqMZzX_TsZZTF-153" target="lIAzLQjcqMZzX_TsZZTF-154">
          <mxGeometry width="50" height="50" relative="1" as="geometry">
            <mxPoint x="1260" y="1620" as="sourcePoint" />
            <mxPoint x="1310" y="1570" as="targetPoint" />
          </mxGeometry>
        </mxCell>
        <mxCell id="lIAzLQjcqMZzX_TsZZTF-156" value="&lt;h1 style=&quot;margin-top: 0px;&quot;&gt;4. Message Validation&lt;br&gt;&lt;/h1&gt;&lt;p&gt;A message is valid for the transmitter if there is no error&amp;nbsp; until EOF. If corrupted, retransmission will follow as soon as bus is idle in order to compete for bus access.&lt;/p&gt;&lt;p&gt;A message is valid for receivers if no error until the last but one bit of EOF.&lt;br&gt;&lt;/p&gt;" style="text;html=1;whiteSpace=wrap;overflow=hidden;rounded=0;" vertex="1" parent="1">
          <mxGeometry x="1600" y="15" width="290" height="160" as="geometry" />
        </mxCell>
      </root>
    </mxGraphModel>
  </diagram>
</mxfile>
